<?xml version="1.0" encoding="utf-8"?>
<!-- Generator: Adobe Illustrator 27.9.0, SVG Export Plug-In . SVG Version: 6.00 Build 0)  -->
<svg version="1.1" id="Layer_1" xmlns="http://www.w3.org/2000/svg" xmlns:xlink="http://www.w3.org/1999/xlink" x="0px" y="0px"
	 viewBox="0 0 156 91" style="enable-background:new 0 0 156 91;" xml:space="preserve">
<style type="text/css">
	.st0{fill:#FFCD00;}
</style>
<g>
	<g>
		<g>
			<path d="M39.3,59.9v2.2c0,0.3-0.1,0.4-0.4,0.4h-4.3c-0.1,0-0.1,0.1-0.1,0.1v13.8c0,0.3-0.1,0.4-0.4,0.4h-2.7
				c-0.3,0-0.4-0.1-0.4-0.4V62.7c0-0.1-0.1-0.1-0.1-0.1h-4.2c-0.3,0-0.4-0.1-0.4-0.4v-2.2c0-0.3,0.1-0.4,0.4-0.4h12.3
				C39.1,59.5,39.3,59.6,39.3,59.9z"/>
			<path d="M48.2,72.9c0.1-0.1,0.2-0.2,0.3-0.2c0.1,0,0.2,0,0.3,0.1l1.4,1.4c0.1,0.1,0.1,0.2,0.1,0.3c0,0.1,0,0.2-0.1,0.3
				c-0.5,0.7-1.2,1.2-2.1,1.6c-0.9,0.4-1.8,0.6-2.8,0.6c-1.5,0-2.8-0.4-3.8-1.2s-1.7-1.8-2-3.2c-0.2-0.7-0.3-1.5-0.3-2.3
				c0-1,0.1-1.8,0.3-2.4c0.3-1.2,1-2.2,2-3s2.2-1.1,3.6-1.1c1.6,0,2.9,0.5,3.9,1.4c1,1,1.6,2.3,1.8,4c0.1,0.5,0.1,1.2,0.1,1.8
				c0,0.3-0.1,0.4-0.4,0.4h-7.6c-0.1,0-0.1,0.1-0.1,0.1c0.1,0.3,0.1,0.6,0.2,0.8c0.2,0.5,0.5,0.9,1,1.2c0.5,0.3,1.1,0.4,1.8,0.4
				C46.8,74,47.6,73.7,48.2,72.9L48.2,72.9z M43.7,67.3c-0.4,0.3-0.6,0.6-0.7,1.1c-0.1,0.3-0.1,0.5-0.1,0.6c0,0.1,0,0.1,0.1,0.1h4.2
				c0.1,0,0.1,0,0.1-0.1c0-0.2,0-0.4-0.1-0.6c-0.1-0.5-0.4-0.9-0.8-1.1c-0.4-0.3-0.8-0.4-1.4-0.4C44.5,66.9,44.1,67,43.7,67.3
				L43.7,67.3z"/>
			<path d="M53.6,76.4V59.9c0-0.3,0.1-0.4,0.4-0.4h2.7c0.3,0,0.4,0.1,0.4,0.4v16.5c0,0.3-0.1,0.4-0.4,0.4H54
				C53.7,76.8,53.6,76.7,53.6,76.4z"/>
			<path d="M68.7,72.9c0.1-0.1,0.2-0.2,0.3-0.2c0.1,0,0.2,0,0.3,0.1l1.4,1.4c0.1,0.1,0.1,0.2,0.1,0.3c0,0.1,0,0.2-0.1,0.3
				c-0.5,0.7-1.2,1.2-2.1,1.6c-0.9,0.4-1.8,0.6-2.8,0.6c-1.5,0-2.8-0.4-3.8-1.2s-1.7-1.8-2-3.2c-0.2-0.7-0.3-1.5-0.3-2.3
				c0-1,0.1-1.8,0.3-2.4c0.3-1.2,1-2.2,2-3s2.2-1.1,3.6-1.1c1.6,0,2.9,0.5,3.9,1.4c1,1,1.6,2.3,1.8,4c0.1,0.5,0.1,1.2,0.1,1.8
				c0,0.3-0.1,0.4-0.4,0.4h-7.6c-0.1,0-0.1,0.1-0.1,0.1c0.1,0.3,0.1,0.6,0.2,0.8c0.2,0.5,0.5,0.9,1,1.2c0.5,0.3,1.1,0.4,1.8,0.4
				C67.3,74,68.1,73.7,68.7,72.9L68.7,72.9z M64.2,67.3c-0.4,0.3-0.6,0.6-0.7,1.1c-0.1,0.3-0.1,0.5-0.1,0.6c0,0.1,0,0.1,0.1,0.1h4.2
				c0.1,0,0.1,0,0.1-0.1c0-0.2,0-0.4-0.1-0.6c-0.1-0.5-0.4-0.9-0.8-1.1c-0.4-0.3-0.8-0.4-1.4-0.4C65,66.9,64.6,67,64.2,67.3
				L64.2,67.3z"/>
			<path d="M91.2,65.1c0.7,0.8,1.1,1.9,1.1,3.3v8.1c0,0.3-0.1,0.4-0.4,0.4h-2.7c-0.3,0-0.4-0.1-0.4-0.4v-7.3c0-0.7-0.2-1.2-0.5-1.6
				c-0.3-0.4-0.8-0.6-1.4-0.6c-0.6,0-1.1,0.2-1.4,0.6c-0.4,0.4-0.5,0.9-0.5,1.6v7.3c0,0.3-0.1,0.4-0.4,0.4h-2.6
				c-0.3,0-0.4-0.1-0.4-0.4v-7.3c0-0.7-0.2-1.2-0.5-1.6c-0.4-0.4-0.8-0.6-1.4-0.6c-0.5,0-1,0.2-1.3,0.5c-0.4,0.3-0.6,0.8-0.6,1.3
				v7.7c0,0.3-0.1,0.4-0.4,0.4h-2.7c-0.3,0-0.4-0.1-0.4-0.4V64.5c0-0.3,0.1-0.4,0.4-0.4h2.7c0.3,0,0.4,0.1,0.4,0.4v0.8
				c0,0.1,0,0.1,0.1,0.1c0,0,0.1,0,0.1-0.1c0.7-1,1.7-1.5,3.1-1.5c0.8,0,1.5,0.2,2.2,0.5c0.6,0.3,1.1,0.8,1.4,1.5
				c0,0.1,0,0.1,0.1,0.1c0,0,0.1,0,0.1-0.1c0.4-0.7,0.9-1.2,1.5-1.5c0.6-0.3,1.3-0.5,2.1-0.5C89.4,63.9,90.4,64.3,91.2,65.1
				L91.2,65.1z"/>
			<path d="M103.1,64.5c0.8,0.4,1.5,0.9,2,1.5c0.5,0.6,0.7,1.4,0.7,2.2v8.3c0,0.3-0.1,0.4-0.4,0.4h-2.7c-0.3,0-0.4-0.1-0.4-0.4v-0.6
				c0-0.1,0-0.1-0.1-0.1c0,0-0.1,0-0.1,0.1c-0.8,0.8-1.9,1.3-3.4,1.3c-1.3,0-2.3-0.3-3.1-0.9c-0.8-0.6-1.2-1.6-1.2-2.8
				c0-1.2,0.4-2.3,1.3-3c0.9-0.7,2.2-1.1,3.8-1.1h2.5c0.1,0,0.1-0.1,0.1-0.1v-0.5c0-0.5-0.2-1-0.5-1.3s-0.8-0.5-1.5-0.5
				c-0.5,0-0.9,0.1-1.2,0.2c-0.3,0.2-0.5,0.4-0.7,0.7c-0.1,0.2-0.3,0.3-0.5,0.3l-2.8-0.3c-0.1,0-0.2-0.1-0.3-0.1s-0.1-0.1-0.1-0.2
				c0.1-0.7,0.4-1.3,0.9-1.8c0.5-0.5,1.1-1,1.9-1.3s1.7-0.5,2.7-0.5C101.3,63.9,102.2,64.1,103.1,64.5L103.1,64.5z M101.5,73.9
				c0.5-0.4,0.7-0.9,0.7-1.5v-0.9c0-0.1-0.1-0.1-0.1-0.1h-1.8c-0.7,0-1.3,0.1-1.8,0.4C98.2,72.1,98,72.5,98,73
				c0,0.4,0.2,0.8,0.5,1.1c0.3,0.3,0.7,0.4,1.3,0.4C100.4,74.4,101,74.2,101.5,73.9L101.5,73.9z"/>
			<path d="M116.2,64.2c0.2,0.1,0.3,0.3,0.2,0.5l-0.5,2.6c0,0.1-0.1,0.2-0.1,0.3c-0.1,0-0.2,0-0.4,0c-0.3-0.1-0.5-0.1-0.7-0.1
				c-0.1,0-0.3,0-0.6,0.1c-0.6,0.1-1.1,0.3-1.5,0.7c-0.4,0.4-0.6,0.9-0.6,1.6v6.6c0,0.3-0.1,0.4-0.4,0.4H109c-0.3,0-0.4-0.1-0.4-0.4
				V64.5c0-0.3,0.1-0.4,0.4-0.4h2.7c0.3,0,0.4,0.1,0.4,0.4v0.8c0,0.1,0,0.1,0.1,0.1c0,0,0.1,0,0.1-0.1c0.7-1,1.6-1.4,2.7-1.4
				C115.5,63.9,115.9,64,116.2,64.2L116.2,64.2z"/>
			<path d="M118.4,76.4V59.9c0-0.3,0.1-0.4,0.4-0.4h2.7c0.3,0,0.4,0.1,0.4,0.4v8.2c0,0.1,0,0.1,0.1,0.1c0,0,0.1,0,0.1-0.1l3.3-3.8
				c0.2-0.2,0.3-0.2,0.5-0.2h3c0.1,0,0.2,0,0.3,0.1c0.1,0,0.1,0.1,0.1,0.2c0,0.1,0,0.2-0.1,0.3l-3.1,3.8c-0.1,0.1-0.1,0.1,0,0.2
				l3.6,7.7l0.1,0.2c0,0.2-0.1,0.3-0.4,0.3h-2.8c-0.2,0-0.4-0.1-0.5-0.3l-2.4-5.7c-0.1-0.1-0.1-0.1-0.2,0l-1.5,2
				c-0.1,0.1-0.1,0.1-0.1,0.2v3.5c0,0.3-0.1,0.4-0.4,0.4h-2.7C118.6,76.8,118.5,76.7,118.4,76.4L118.4,76.4z"/>
		</g>
		<g>
			<path d="M40.9,85.5l3.4,0v0.6l-2.6,0v1.7l2.5,0v0.6l-2.5,0l0,2.4h-0.8C40.9,90.9,40.9,85.5,40.9,85.5z"/>
			<path d="M48.4,88.4l0,2.5h-0.8l0-2.5l-2.1-2.8h0.9l1.6,2.2l1.6-2.2h0.9L48.4,88.4z"/>
			<path d="M51.8,85.5h0.8l0,4.7l2.6,0v0.7l-3.4,0L51.8,85.5L51.8,85.5z"/>
			<path d="M60,90.9l-2.6-2.5l0,2.5h-0.8l0-5.3h0.8l0,2.4l2.5-2.4h1l-2.7,2.6l2.8,2.8L60,90.9L60,90.9z"/>
			<path d="M62.3,85.6l3.5,0v0.6l-2.7,0v1.7l2.6,0v0.6l-2.6,0v1.8l2.7,0v0.6l-3.5,0L62.3,85.6L62.3,85.6z"/>
			<path d="M68.2,90.8c-0.3-0.1-0.6-0.3-0.9-0.5l0.3-0.6c0.3,0.2,0.5,0.4,0.8,0.5c0.3,0.1,0.6,0.1,0.9,0.1c0.4,0,0.7-0.1,0.9-0.2
				c0.2-0.1,0.3-0.4,0.3-0.6c0-0.2-0.1-0.4-0.3-0.5c-0.2-0.1-0.5-0.2-1-0.3c-0.4-0.1-0.8-0.2-1-0.3c-0.3-0.1-0.5-0.3-0.6-0.5
				c-0.2-0.2-0.2-0.5-0.2-0.8c0-0.3,0.1-0.6,0.2-0.8s0.4-0.4,0.7-0.6c0.3-0.1,0.7-0.2,1.1-0.2c0.4,0,0.7,0.1,1.1,0.2
				c0.3,0.1,0.6,0.3,0.8,0.5L71,86.7c-0.2-0.2-0.5-0.4-0.8-0.5c-0.3-0.1-0.5-0.1-0.8-0.1c-0.4,0-0.7,0.1-0.9,0.2
				c-0.2,0.2-0.3,0.4-0.3,0.7c0,0.2,0.1,0.4,0.3,0.5c0.2,0.1,0.5,0.2,0.9,0.3c0.4,0.1,0.8,0.2,1.1,0.3c0.3,0.1,0.5,0.3,0.7,0.4
				c0.2,0.2,0.2,0.4,0.2,0.7c0,0.3-0.1,0.6-0.2,0.8c-0.2,0.2-0.4,0.4-0.7,0.5c-0.3,0.1-0.7,0.2-1.1,0.2C68.9,91,68.5,90.9,68.2,90.8
				L68.2,90.8z"/>
			<path d="M76.5,90.9l-2.6-2.5l0,2.5h-0.8l0-5.3h0.8l0,2.4l2.5-2.4h1l-2.7,2.6l2.8,2.8L76.5,90.9L76.5,90.9z"/>
			<path d="M79.3,90.6c-0.4-0.2-0.7-0.5-0.9-0.9c-0.2-0.4-0.3-0.9-0.3-1.4c0-0.6,0.1-1,0.3-1.5c0.2-0.4,0.5-0.7,0.9-0.9
				c0.4-0.2,0.8-0.3,1.3-0.3c0.5,0,1,0.1,1.3,0.3s0.7,0.5,0.9,0.9s0.3,0.9,0.3,1.5s-0.1,1-0.3,1.4c-0.2,0.4-0.5,0.7-0.9,0.9
				c-0.4,0.2-0.8,0.3-1.3,0.3C80.1,91,79.7,90.9,79.3,90.6L79.3,90.6z M81.9,89.8c0.3-0.4,0.4-0.9,0.4-1.6s-0.1-1.2-0.4-1.6
				c-0.3-0.4-0.7-0.5-1.3-0.5c-0.5,0-0.9,0.2-1.2,0.5C79.1,87,79,87.6,79,88.2c0,0.7,0.1,1.2,0.4,1.6c0.3,0.4,0.7,0.5,1.2,0.5
				C81.2,90.3,81.6,90.2,81.9,89.8L81.9,89.8z"/>
			<path d="M89.9,85.6l0,5.3h-0.7l0-3.9l-1.6,3H87l-1.6-3l0,3.8h-0.7l0-5.3h0.6l1.9,3.7l1.9-3.7L89.9,85.6L89.9,85.6z"/>
			<path d="M97.1,85.6l0,5.3h-0.7l0-3.9l-1.6,3h-0.5l-1.6-3l0,3.8H92l0-5.3h0.6l1.9,3.7l1.9-3.7L97.1,85.6L97.1,85.6z"/>
			<path d="M99.6,90.4c-0.4-0.4-0.6-0.9-0.6-1.6l0-3.2h0.8l0,3.3c0,0.5,0.1,0.9,0.4,1.1c0.2,0.3,0.6,0.4,1,0.4c0.5,0,0.8-0.1,1-0.4
				c0.2-0.3,0.4-0.6,0.4-1.1l0-3.3h0.8l0,3.2c0,0.7-0.2,1.3-0.6,1.6c-0.4,0.4-0.9,0.6-1.6,0.6C100.5,91,99.9,90.8,99.6,90.4
				L99.6,90.4z"/>
			<path d="M109.6,85.6l0,5.3H109l-3-4l0,4h-0.7l0-5.3h0.6l3.1,4l0-4L109.6,85.6L109.6,85.6z"/>
			<path d="M111.5,85.6l3.5,0v0.6l-2.7,0v1.7l2.6,0v0.6l-2.6,0v1.8l2.7,0V91l-3.5,0L111.5,85.6L111.5,85.6z"/>
		</g>
	</g>
	<path class="st0" d="M56.6,0.2v27.1c0,0.7,0,1.8,0.1,2.5c0.5,5.2,3,10.1,6.9,13.7c3.9,3.6,9.1,5.6,14.4,5.6c5.3,0,10.5-2,14.4-5.6
		c3.9-3.6,6.4-8.4,6.9-13.7c0.1-0.7,0.1-1.8,0.1-2.5V0.2H56.6z"/>
	<g>
		<path d="M56.4,0v27.3c0,0.7,0,1.8,0.1,2.5c0.5,5.3,3,10.2,6.9,13.8c4,3.6,9.1,5.6,14.5,5.6s10.6-2,14.5-5.6
			c4-3.6,6.4-8.5,6.9-13.8c0.1-0.7,0.1-1.8,0.1-2.5V0H56.4z M98.9,27.3c0,0.7,0,1.8-0.1,2.5c-0.5,5.1-2.9,9.9-6.7,13.4
			c-3.2,2.9-7.2,4.7-11.4,5.3c-0.3-0.5-0.7-0.9-0.7-0.9l0,0l-3.7-3.7c-0.6-0.7-0.9-1.5-1.1-2l0,0c0-0.1-0.1-0.1-0.1,0v6.6
			c-4.2-0.6-8.1-2.4-11.2-5.2c-3.8-3.5-6.2-8.2-6.7-13.4c-0.1-0.7-0.1-1.8-0.1-2.5V0.7h41.8L98.9,27.3L98.9,27.3z"/>
		<path d="M80.9,43.6c0-0.9-0.9-1.8-0.9-1.8l0,0l-3.5-3.5c-0.7-0.7-1-1.6-1.2-2.1c0-0.1-0.1-0.1-0.1,0c-0.1,0.5-0.1,1-0.1,1.5l0,2.6
			c0,0.9,0.9,1.8,0.9,1.8l3.5,3.6c0.5,0.6,0.9,1.2,1.1,1.7l0,0c0.1,0.3,0.3,0.2,0.3,0.1V47L80.9,43.6L80.9,43.6L80.9,43.6z"/>
		<path d="M82,32.9c-0.7,0.3-1.4,0.7-1.7,0.3c-0.2-0.2-0.1-0.4-0.1-0.7c0,0,0,0,0,0c0,0,0,0,0,0c0,0,0,0,0,0
			c0.1-0.3,0.2-0.7,0.3-1.1c0.2-0.9,0-1.9-0.9-2.7c0,0-0.1,0-0.2,0l-0.2,0.2l0,0l0,0l-1,1c-1.4,1.4-2.3,3-2.8,4.9c0,0.1,0,0.3,0,0.4
			c0.1,0.8,0.9,1.5,0.9,1.5l3.4,3.4c0.5,0.5,0.8,1.1,0.9,1.5l0,0c0.1,0.3,0.3,0.2,0.3,0.1v-4c0-1.4,0.5-2.6,1.5-3.6l1.2-1.2
			c0,0,0-0.1,0-0.1C83.3,32.5,82.7,32.7,82,32.9L82,32.9z"/>
		<path d="M62.6,32.1C62.6,32.1,62.6,32.1,62.6,32.1c4.3-5.6,13.1-6.7,16.9-4.1c0.1,0.1,0.5,0.3,0.9,0.7l0,0l0,0c0,0,0,0,0.1,0.1
			c1.1,1.1,0.8,2.8,0.7,3.7c0,0.1,0,0.1,0.1,0.1c0.5-0.1,2.3-0.7,2.8-0.2l0,0l0.6,0.6l0.3,0.3c0,0,0.1,0,0.1,0l4.7-4.7
			c0,0,0-0.1,0-0.1l-0.3-0.3l-0.6-0.6l0,0c-0.5-0.5,0-2.3,0.2-2.8c0-0.1,0-0.1-0.1-0.1c-0.9,0.1-2.6,0.4-3.7-0.7c0,0,0,0-0.1-0.1
			l0,0l0,0c-0.2-0.2-0.2-0.2-0.4-0.5c-4.9-5.8-2.1-13.1,3.8-17.4c4-2.8,4-2.8,0,0c0.2-0.1,0.3-0.4-0.1-0.4c0,0-0.2,0-0.2,0
			C73.9,5.8,62.3,17.5,62,31.8c0,0,0,0.1,0,0.2C62.1,32.3,62.3,32.4,62.6,32.1L62.6,32.1z"/>
		<polygon points="89.1,27.2 89.1,27.2 89.1,27.2 		"/>
		<path d="M86,23.9c0.6,0.3,1.2,0.3,1.8,0.2c0.4-0.1,0.8-0.2,1.1-0.3c0,0,0,0,0,0c0,0,0,0,0,0c0,0,0,0,0,0c0.3-0.1,0.6-0.1,0.7,0.1
			c0.4,0.4-0.1,1-0.3,1.7c-0.3,0.6-0.4,1.2-0.3,1.6c0,0,0,0,0.1,0l4.8-4.8c0,0,0,0,0-0.1v-0.7c0,0,0,0,0,0l0,0
			c-0.8,0.5-1.7,0.8-2.6,0.8c-1,0-1.7-0.3-2.5-0.8c0,0,0,0,0,0L86,23.7C85.9,23.8,85.9,23.9,86,23.9L86,23.9z"/>
	</g>
</g>
</svg>
