<?xml version="1.0" encoding="UTF-8"?>
<svg id="Layer_1" data-name="Layer 1" xmlns="http://www.w3.org/2000/svg" viewBox="-90 0 697.44 573.5">
  <defs>
    <style type="text/css">
      .cls-1 {
        fill: #ffcd00;
      }

      .cls-2 {
        fill: #e40017;
      }
    </style>
  </defs>
  <g>
    <g>
      <path d="m28.36,424.19L.14,331.48c-.09-.18-.14-.46-.14-.83,0-1.2.69-1.81,2.08-1.81h16.12c1.3,0,2.18.65,2.64,1.95l18.21,67c.09.37.28.56.56.56s.46-.18.56-.56l17.93-66.86c.46-1.39,1.34-2.08,2.64-2.08h15.71c.83,0,1.44.26,1.81.76.37.51.42,1.14.14,1.88l-28.63,92.71c-.46,1.3-1.34,1.95-2.64,1.95h-16.12c-1.3,0-2.18-.65-2.64-1.95Z"/>
      <path d="m128.85,404.32c.56-.65,1.16-.97,1.81-.97.56,0,1.06.23,1.53.69l7.92,7.64c.56.56.83,1.11.83,1.67,0,.65-.19,1.21-.56,1.67-3.06,3.8-6.97,6.79-11.75,8.97-4.77,2.18-9.99,3.27-15.64,3.27-8.53,0-15.59-2.18-21.2-6.53-5.61-4.35-9.38-10.33-11.33-17.93-1.11-4.08-1.67-8.39-1.67-12.93,0-5.37.51-9.91,1.53-13.62,1.85-6.86,5.58-12.37,11.19-16.54,5.61-4.17,12.25-6.26,19.95-6.26,9.08,0,16.28,2.69,21.61,8.06,5.33,5.38,8.78,12.93,10.36,22.66.37,3.06.65,6.44.83,10.15,0,1.58-.79,2.36-2.36,2.36h-42.67c-.56,0-.83.28-.83.83.28,1.95.6,3.38.97,4.31.92,2.87,2.76,5.07,5.49,6.6,2.73,1.53,6.05,2.29,9.94,2.29,6.12-.28,10.79-2.41,14.04-6.39Zm-25.09-31.76c-1.99,1.44-3.36,3.45-4.1,6.05-.46,1.76-.74,2.92-.83,3.47-.09.56.14.83.7.83h23.63c.46,0,.7-.18.7-.56,0-1.02-.19-2.08-.56-3.2-.83-2.69-2.27-4.82-4.31-6.39-2.04-1.58-4.63-2.36-7.78-2.36-2.97,0-5.45.72-7.44,2.15Z"/>
      <path d="m170.69,424.47c-4.63-1.76-8.2-4.22-10.7-7.37-2.5-3.15-3.75-6.72-3.75-10.7v-.7c0-1.57.79-2.36,2.36-2.36h14.04c1.57,0,2.36.28,2.36.83v.97c0,2.04,1.11,3.78,3.34,5.21,2.22,1.44,5.05,2.15,8.48,2.15,3.15,0,5.7-.6,7.64-1.81,1.95-1.2,2.92-2.78,2.92-4.73,0-1.67-.83-2.92-2.5-3.75-1.67-.83-4.4-1.71-8.2-2.64-4.54-1.2-7.92-2.27-10.15-3.2-6.02-2.04-10.8-4.54-14.32-7.51-3.52-2.96-5.28-7.23-5.28-12.79,0-6.86,2.69-12.3,8.06-16.33,5.37-4.03,12.42-6.05,21.13-6.05,5.93,0,11.14.95,15.64,2.85,4.49,1.9,7.97,4.57,10.42,7.99,2.45,3.43,3.68,7.32,3.68,11.68,0,.46-.21.86-.62,1.18-.42.33-1,.49-1.74.49h-13.62c-1.58,0-2.36-.28-2.36-.83v-.83c0-2.04-1.02-3.75-3.06-5.14-2.04-1.39-4.77-2.08-8.2-2.08-3.06,0-5.58.56-7.58,1.67-1.99,1.11-2.99,2.64-2.99,4.59s.95,3.24,2.85,4.17c1.9.93,5.03,1.9,9.38,2.92,2.69.56,5.28,1.25,7.78,2.08,6.67,1.95,11.91,4.45,15.71,7.51,3.8,3.06,5.7,7.51,5.7,13.34,0,6.86-2.73,12.21-8.2,16.05-5.47,3.85-12.79,5.77-21.96,5.77-6.21,0-11.63-.88-16.26-2.64Z"/>
      <path d="m266.18,370.4h-12.51c-.56,0-.83.28-.83.83v28.77c0,3.06.62,5.31,1.88,6.74,1.25,1.44,3.27,2.15,6.05,2.15h3.89c1.58,0,2.36.79,2.36,2.36v11.95c0,1.48-.79,2.32-2.36,2.5-3.52.19-6.07.28-7.64.28-7.69,0-13.44-1.3-17.24-3.89-3.8-2.59-5.75-7.41-5.84-14.46v-36.42c0-.56-.28-.83-.83-.83h-7.09c-1.58,0-2.36-.79-2.36-2.36v-10.98c0-1.57.79-2.36,2.36-2.36h7.09c.56,0,.83-.28.83-.83v-15.71c0-1.57.79-2.36,2.36-2.36h14.18c1.57,0,2.36.79,2.36,2.36v15.71c0,.56.28.83.83.83h12.51c1.57,0,2.36.79,2.36,2.36v10.98c0,1.58-.79,2.36-2.36,2.36Z"/>
      <path d="m324.84,356.92v11.81c0,1.58-.79,2.36-2.36,2.36h-12.65c-.56,0-.83.28-.83.83v51.85c0,1.58-.79,2.36-2.36,2.36h-14.87c-1.58,0-2.36-.79-2.36-2.36v-51.85c0-.56-.28-.83-.83-.83h-7.37c-1.58,0-2.36-.79-2.36-2.36v-11.81c0-1.58.79-2.36,2.36-2.36h7.37c.56,0,.83-.28.83-.83v-2.92c0-5.74.88-10.22,2.64-13.41,1.76-3.2,4.61-5.47,8.55-6.81,3.94-1.34,9.38-1.92,16.33-1.74h4.59c1.57,0,2.36.79,2.36,2.36v9.87c0,1.58-.79,2.36-2.36,2.36h-3.89c-3.24.09-5.49.76-6.74,2.02s-1.88,3.54-1.88,6.88v1.39c0,.56.28.83.83.83h12.65c1.58,0,2.36.79,2.36,2.36Z"/>
      <path d="m343.74,421.13c-5.56-4.08-9.36-9.64-11.4-16.68-1.3-4.35-1.95-9.08-1.95-14.18,0-5.65.7-10.56,2.08-14.73,2.13-6.86,5.95-12.23,11.47-16.12,5.51-3.89,12.21-5.84,20.08-5.84s14.11,1.95,19.53,5.84c5.42,3.89,9.2,9.22,11.33,15.98,1.39,4.26,2.08,9.13,2.08,14.59,0,4.82-.6,9.5-1.81,14.04-2.13,7.23-5.96,12.91-11.47,17.03-5.51,4.12-12.12,6.19-19.81,6.19s-14.59-2.04-20.16-6.12Zm27.8-13.48c2.13-1.85,3.66-4.4,4.59-7.65.74-2.5,1.11-5.74,1.11-9.73s-.37-7.18-1.11-9.87c-.93-3.15-2.46-5.61-4.59-7.37-2.13-1.76-4.77-2.64-7.92-2.64s-5.65.88-7.78,2.64c-2.13,1.76-3.66,4.22-4.59,7.37-.74,2.69-1.11,5.98-1.11,9.87s.37,7.04,1.11,9.73c.92,3.25,2.48,5.79,4.66,7.65,2.18,1.85,4.84,2.78,7.99,2.78,2.96,0,5.51-.92,7.65-2.78Z"/>
      <path d="m409.21,423.78v-92.57c0-1.58.79-2.36,2.36-2.36h14.87c1.57,0,2.36.79,2.36,2.36v92.57c0,1.58-.79,2.36-2.36,2.36h-14.87c-1.58,0-2.36-.79-2.36-2.36Z"/>
      <path d="m488.29,328.84h14.87c1.58,0,2.36.79,2.36,2.36v92.57c0,1.58-.79,2.36-2.36,2.36h-14.87c-1.58,0-2.36-.79-2.36-2.36v-3.75c0-.37-.12-.58-.35-.63-.23-.05-.44.07-.63.35-3.8,5-9.08,7.51-15.84,7.51-6.3,0-11.88-1.88-16.75-5.63-4.86-3.75-8.22-8.69-10.08-14.8-1.58-4.45-2.36-10.01-2.36-16.68s.88-12.6,2.64-17.24c2.04-5.93,5.4-10.66,10.08-14.18,4.68-3.52,10.17-5.28,16.47-5.28,6.86,0,12.14,2.27,15.84,6.81.18.28.39.37.63.28.23-.09.35-.32.35-.69v-28.63c0-1.58.79-2.36,2.36-2.36Zm-2.5,61.58c0-6.12-.97-10.89-2.92-14.32-2.32-3.61-5.42-5.42-9.31-5.42-4.26,0-7.51,1.76-9.73,5.28-2.22,3.71-3.34,8.57-3.34,14.59,0,5.47.97,10.01,2.92,13.62,2.22,3.99,5.61,5.98,10.15,5.98,4.08,0,7.23-1.99,9.45-5.98,1.85-3.43,2.78-8.01,2.78-13.76Z"/>
    </g>
    <g>
      <path d="m47.69,474.36l18.83.02v3.53s-14.55-.02-14.55-.02v9.29s13.69.02,13.69.02v3.53s-13.71-.02-13.71-.02l-.02,13.28h-4.29s.04-29.64.04-29.64Z"/>
      <path d="m88.9,490.21l-.02,13.83h-4.33s.02-13.83.02-13.83l-11.79-15.82h4.96s9.02,12.25,9.02,12.25l9.05-12.22h4.92s-11.83,15.8-11.83,15.8Z"/>
      <path d="m108.01,474.43h4.33s-.03,26.02-.03,26.02l14.38.02v3.62s-18.71-.02-18.71-.02l.04-29.63Z"/>
      <path d="m153.37,504.12l-14.57-13.97-.02,13.96h-4.33s.04-29.64.04-29.64h4.33s-.02,13.5-.02,13.5l13.97-13.48h5.34s-14.98,14.32-14.98,14.32l15.66,15.32h-5.42Z"/>
      <path d="m166.27,474.5l19.25.02v3.49s-15.01-.02-15.01-.02v9.33s14.16.02,14.16.02v3.53s-14.17-.02-14.17-.02v9.79s15,.02,15,.02v3.49s-19.26-.02-19.26-.02l.04-29.63Z"/>
      <path d="m198.83,503.59c-1.92-.62-3.56-1.53-4.94-2.74l1.56-3.19c1.45,1.18,2.96,2.03,4.52,2.55,1.55.52,3.3.78,5.23.78,2.21,0,3.92-.41,5.13-1.23s1.81-2,1.81-3.51c0-1.29-.56-2.25-1.68-2.88-1.12-.63-2.91-1.23-5.38-1.79-2.35-.51-4.29-1.08-5.8-1.73-1.51-.65-2.7-1.52-3.55-2.63-.85-1.11-1.28-2.52-1.28-4.23,0-1.74.46-3.26,1.37-4.58.91-1.32,2.21-2.34,3.89-3.08,1.68-.74,3.63-1.11,5.84-1.11,2.07,0,4.03.32,5.86.95,1.83.63,3.34,1.54,4.52,2.72l-1.52,3.19c-1.37-1.12-2.78-1.96-4.22-2.51-1.44-.55-2.98-.82-4.6-.83-2.13,0-3.8.44-5.03,1.32-1.22.88-1.83,2.11-1.83,3.68,0,1.35.53,2.36,1.59,3.05,1.06.69,2.77,1.31,5.12,1.88,2.47.56,4.46,1.15,5.99,1.75,1.53.6,2.74,1.43,3.65,2.48.91,1.05,1.36,2.42,1.36,4.1,0,1.71-.46,3.21-1.37,4.5-.91,1.29-2.22,2.28-3.91,2.98-1.7.7-3.71,1.05-6.03,1.04-2.3,0-4.41-.31-6.33-.93Z"/>
      <path d="m245.13,504.23l-14.57-13.97-.02,13.96h-4.33s.04-29.64.04-29.64h4.33s-.02,13.5-.02,13.5l13.97-13.48h5.34s-14.98,14.32-14.98,14.32l15.66,15.32h-5.42Z"/>
      <path d="m260.83,502.74c-2.06-1.24-3.65-2.99-4.76-5.26s-1.67-4.95-1.67-8.03c0-3.11.56-5.81,1.67-8.09,1.11-2.28,2.7-4.03,4.78-5.25,2.08-1.22,4.51-1.82,7.32-1.82,2.83,0,5.28.62,7.35,1.84,2.07,1.22,3.66,2.98,4.76,5.26,1.11,2.29,1.66,4.97,1.65,8.05,0,3.08-.56,5.77-1.67,8.05-1.11,2.28-2.7,4.04-4.78,5.27-2.08,1.23-4.53,1.84-7.36,1.84-2.8,0-5.23-.62-7.29-1.86Zm14.23-4.69c1.66-2.02,2.49-4.89,2.49-8.61,0-3.73-.81-6.59-2.45-8.6-1.64-2.01-3.96-3.01-6.95-3.01-2.94,0-5.23,1-6.88,3-1.64,2-2.46,4.87-2.47,8.59,0,3.73.81,6.6,2.45,8.62,1.64,2.02,3.93,3.03,6.87,3.03,2.97,0,5.28-1,6.94-3.02Z"/>
      <path d="m319.27,474.69l-.04,29.63h-3.91s.07-21.44.07-21.44l-8.85,16.68h-2.94s-8.85-16.49-8.85-16.49l.02,21.23h-3.91s.04-29.64.04-29.64h3.49s10.74,20.53,10.74,20.53l10.7-20.5h3.45Z"/>
      <path d="m359.5,474.74l-.04,29.63h-3.91s.07-21.44.07-21.44l-8.85,16.68h-2.94s-8.85-16.49-8.85-16.49l.02,21.23h-3.91s.04-29.64.04-29.64h3.49s10.74,20.53,10.74,20.53l10.7-20.5h3.45Z"/>
      <path d="m373.13,501.66c-2.04-2.05-3.06-5.06-3.06-9.04l.02-17.86h4.29s-.02,18.16-.02,18.16c0,2.72.65,4.78,1.95,6.18,1.3,1.4,3.24,2.11,5.82,2.11,2.55,0,4.48-.69,5.8-2.09,1.32-1.4,1.98-3.46,1.98-6.18l.02-18.16h4.29s-.02,17.87-.02,17.87c0,3.95-1.04,6.96-3.1,9.01-2.06,2.06-5.06,3.08-8.98,3.08-3.95,0-6.95-1.03-8.99-3.08Z"/>
      <path d="m428.9,474.83l-.04,29.63h-3.32s-16.91-22.39-16.91-22.39l-.03,22.36h-4.08s.04-29.64.04-29.64h3.28s16.96,22.43,16.96,22.43l.03-22.4h4.08Z"/>
      <path d="m439.29,474.84l19.25.02v3.49s-15.01-.02-15.01-.02v9.33s14.16.02,14.16.02v3.53s-14.17-.02-14.17-.02v9.79s15,.02,15,.02v3.49s-19.26-.02-19.26-.02l.04-29.63Z"/>
    </g>
  </g>
  <g>
    <path class="cls-2" d="m135.27,0v151.55c0,4,.2,10.19.58,14.09,5.97,60.26,56.97,107.34,118.99,107.34s113.02-47.08,118.99-107.34c.39-3.9.59-10.09.59-14.09V0h-239.14Z"/>
    <path class="cls-1" d="m312.28,213.13s2.93-86.6,38.71-152.81c-13.45,8.12-23.4,11.27-29.74,15.34-3.64,2.5-5.56,5.62-5.56,10.02,0,6.71,5.62,10.54,6.52,12.47.42.89-.32,3.58-1.78,7.75-1.1-9.39-10.54-13.61-17.41-10.89-1.77.7-8.42,3.46-9.35,3.84-.93.38-1.48.9-1.84,1.73-.33.85-.31,1.6.08,2.53.39.92,3.14,7.58,3.9,9.32,2.95,6.83,12.81,10.57,20.25,4.54-.96,2.54-1.96,5.21-3.07,8.65-5.04,15.68-7.77,27.35-10.24,31.93-2.47,4.58-7.8,5.92-11.66,5.92h-9.11c-5.11,0-12.36-3.32-14.3-18.55-1.68-13.2-4.8-38.64-5.6-45.19,7.38,7.49,17.26,5.49,22.99-.25,1.56-1.56,7.35-7.57,8.16-8.41.81-.83,1.16-1.64,1.16-2.7s-.35-1.86-1.16-2.7c-.81-.83-6.61-6.84-8.16-8.41-6.09-6.11-16.89-7.97-24.38,1.3-.29-5.35.84-6.66,4.98-8.99,4.23-2.38,11.2-9.16,7.33-19.88-3.47-9.61-9.74-12.31-18.08-33.95-8.34,21.63-14.61,24.34-18.08,33.95-3.88,10.72,3.09,17.49,7.33,19.88,4.14,2.33,5.28,3.65,4.98,8.99-7.49-9.27-18.29-7.41-24.38-1.3-1.56,1.56-7.35,7.57-8.16,8.41-.81.83-1.16,1.64-1.16,2.7s.35,1.86,1.16,2.7c.81.83,6.61,6.84,8.16,8.41,5.72,5.75,15.6,7.75,22.99.25-.8,6.55-3.92,31.99-5.6,45.19-1.94,15.23-9.19,18.55-14.3,18.55h-9.11c-3.86,0-9.19-1.34-11.66-5.92-2.47-4.58-5.2-16.25-10.24-31.93-1.1-3.44-2.11-6.11-3.07-8.65,7.44,6.03,17.3,2.29,20.25-4.54.76-1.75,3.51-8.4,3.9-9.32s.41-1.68.08-2.53c-.36-.84-.92-1.35-1.84-1.73-.93-.38-7.58-3.14-9.35-3.84-6.87-2.72-16.31,1.49-17.41,10.89-1.46-4.17-2.2-6.85-1.78-7.75.9-1.92,6.52-5.76,6.52-12.47,0-4.4-1.91-7.53-5.56-10.02-6.34-4.07-16.29-7.21-29.74-15.34,35.78,66.21,38.71,152.81,38.71,152.81h114.71Z"/>
  </g>
</svg>